<svg width="449" height="80" viewBox="0 0 449 80" fill="none" xmlns="http://www.w3.org/2000/svg">
<g clip-path="url(#clip0_18_244)">
<path d="M12.7172 23.5001C12.341 20.2789 12.7317 17.0144 13.8576 13.9731C13.8576 13.9731 4.74908 20.31 9.13731 33.9078C9.13731 33.9078 13.3523 31.6126 12.7172 23.5001ZM33.0272 68.2486C23.8899 63.0664 21.0462 57.1625 21.0462 57.1625C21.6425 60.6813 23.0173 64.0225 25.0701 66.942C27.123 69.8614 29.8021 72.2855 32.9117 74.037C39.0755 77.5014 41.4717 79.0315 41.9913 79.9698C42.179 77.7468 41.8903 73.3297 33.0272 68.263V68.2486ZM7.96808 44.7051C7.96808 44.7051 10.4942 29.736 0.0144043 23.0527C0.0144043 23.0527 3.32002 27.4842 3.27671 35.741C3.23341 40.952 7.96808 44.7051 7.96808 44.7051ZM9.0507 41.3851C9.0507 41.3851 8.67539 47.8808 13.0348 48.2417C12.4772 41.4891 13.934 34.7227 17.2209 28.7978C17.2209 28.7978 10.2777 31.2373 9.03627 41.3851H9.0507ZM14.9835 58.274C14.9835 58.274 16.9755 63.3262 21.1039 61.2909C17.042 55.7075 14.8218 48.9967 14.7525 42.0924C14.7525 42.0924 11.9088 48.0396 14.9835 58.274ZM6.32249 57.0759C10.0174 59.6577 13.1911 62.9146 15.6764 66.6752C19.5161 72.5935 26.7336 71.3954 26.7336 71.3954C26.7336 71.3954 17.3653 60.3093 6.3658 57.0759H6.32249ZM4.87899 47.1591C6.61119 45.5568 9.10845 47.3034 9.10845 47.3034C9.10845 47.3034 7.00094 43.2472 3.33445 44.4164C1.38573 45.0083 0.721718 47.3034 0.606238 50.1904C0.469361 54.8776 1.95862 59.4678 4.82125 63.1819C2.324 56.8305 3.17566 48.7613 4.90786 47.1591H4.87899ZM13.973 59.2989C13.973 59.2989 12.5295 47.3179 6.84215 47.1735C5.05221 47.1735 4.54699 48.617 4.38821 49.7574C4.41708 49.7574 6.66893 47.9963 14.0019 59.2989H13.973Z" fill="#139BAC"/>
<path d="M81.0813 33.9078C85.4118 20.31 76.3466 13.9731 76.3466 13.9731C77.4827 17.012 77.8785 20.2778 77.5014 23.5001C76.8662 31.6126 81.0813 33.9078 81.0813 33.9078ZM48.2128 79.9265C48.7758 78.9882 51.0998 77.4581 57.2924 73.9937C60.404 72.2446 63.0847 69.8213 65.1378 66.9014C67.191 63.9815 68.5646 60.639 69.158 57.1192C69.158 57.1192 66.271 63.0231 57.2058 68.2053C48.386 73.3297 48.0396 77.7468 48.2128 79.9265ZM86.9563 35.7843C86.9563 27.5275 90.2186 23.096 90.2186 23.096C79.7388 29.7361 82.2649 44.7484 82.2649 44.7484C82.2649 44.7484 86.9852 40.952 86.9563 35.7843ZM72.9977 28.7978C76.3096 34.715 77.7916 41.4818 77.256 48.2417C81.5865 47.8808 81.24 41.3851 81.24 41.3851C79.9409 31.2373 72.9977 28.7978 72.9977 28.7978ZM75.4805 42.0924C75.3786 48.9935 73.1562 55.6961 69.1147 61.2909C73.2286 63.3262 75.2206 58.274 75.2206 58.274C78.2953 48.0396 75.4805 42.0924 75.4805 42.0924ZM63.4128 71.3954C63.4128 71.3954 70.7458 72.5935 74.4989 66.6752C76.981 62.9168 80.1495 59.6602 83.8383 57.0759C72.9255 60.3093 63.4128 71.3954 63.4128 71.3954ZM85.4118 63.1242C88.2689 59.4064 89.7621 54.8199 89.6412 50.1327C89.4969 47.2457 88.8617 44.9794 86.8986 44.3587C83.1888 43.2616 81.1246 47.2457 81.1246 47.2457C81.1246 47.2457 83.6218 45.499 85.3685 47.1013C87.1151 48.7036 87.8801 56.8305 85.4118 63.1242ZM85.8159 49.7574C85.6283 48.6314 85.1231 47.1302 83.3331 47.1735C77.6746 47.3179 76.2022 59.2989 76.2022 59.2989C83.5352 47.9963 85.8159 49.7574 85.8159 49.7574Z" fill="#139BAC"/>
<path d="M74.2391 6.84218C69.2735 4.0418 57.2347 0.0721749 45.3691 0H44.9505C33.0272 0.0721749 20.9885 4.0418 16.0806 6.84218C16.0806 6.84218 19.4439 15.8352 18.9676 38.1661C18.5634 54.1456 37.632 69.1291 45.2825 70.6592C52.7165 69.1291 71.8285 54.1456 71.482 38.1661C70.8613 15.8352 74.2391 6.84218 74.2391 6.84218ZM68.927 38.2238V38.6569C68.927 46.8992 63.052 54.2755 59.501 57.9853C54.2755 63.4417 48.3572 67.1082 45.066 67.9888C41.8037 67.1082 35.8565 63.4417 30.631 57.9853C27.0945 54.2755 21.205 46.8992 21.205 38.6569C21.205 38.5125 21.205 38.3826 21.205 38.2238C21.205 36.5061 21.205 34.8316 21.205 33.2582C21.205 19.7615 19.7615 11.8367 18.8376 8.2135C27.056 4.68727 35.8793 2.78536 44.8206 2.61273H45.2248C54.142 2.80425 62.9391 4.71067 71.1356 8.22794C70.2406 11.8511 68.7827 19.7759 68.7827 33.2726C68.8693 34.8316 68.8837 36.5061 68.927 38.2238Z" fill="#139BAC"/>
<path d="M29.9815 10.0179C29.9815 9.91682 29.9815 9.83021 29.8948 9.78691L29.635 9.85908L29.3175 9.989C29.2001 10.016 29.0845 10.0497 28.971 10.09L28.6534 10.2344C28.6534 10.2344 28.6534 10.1333 28.6534 10.0756C28.6602 10.0277 28.6602 9.97914 28.6534 9.93126C28.6534 9.93126 28.6534 9.83021 28.6534 9.77247V9.62812C28.8122 9.62812 28.9421 9.55595 29.1009 9.51264L29.4762 9.42603L29.9093 9.29612L30.4722 9.1662L31.0352 8.99299L31.4538 8.86307L31.8147 8.74759C31.9533 8.71745 32.0887 8.67394 32.2189 8.61768C32.2011 8.67405 32.2011 8.73452 32.2189 8.79089C32.2133 8.84367 32.2133 8.8969 32.2189 8.94968C32.2125 8.99759 32.2125 9.04612 32.2189 9.09403C32.2243 9.14682 32.2243 9.20003 32.2189 9.25282H31.8869L31.5549 9.32499L31.2229 9.39716H30.9486C30.9416 9.43048 30.9416 9.46489 30.9486 9.49821V9.64256L31.0641 10.0034L31.5404 11.7645C31.6415 12.1398 31.7425 12.4862 31.8291 12.7749L32.1178 13.6411C32.0314 13.6343 31.9445 13.6343 31.858 13.6411L31.5404 13.7277L31.2373 13.8143L30.9775 13.9009C30.9775 13.5977 30.862 13.3235 30.7754 13.0203C30.7022 12.6694 30.6106 12.3224 30.5011 11.981L30.0392 10.2488C30.0158 10.1729 29.9965 10.0958 29.9815 10.0179Z" fill="#139BAC"/>
<path d="M33.9511 11.6057C33.9511 12.1398 34.0666 12.6739 34.1099 13.208C34.058 13.1932 34.003 13.1932 33.9511 13.208H33.7634H33.6046H33.4603C33.4603 12.3708 33.4603 11.5336 33.4603 10.7108C33.4603 9.88797 33.4603 9.05074 33.3593 8.19907H33.6624C33.6995 8.21357 33.7407 8.21357 33.7779 8.19907C33.8306 8.19258 33.8839 8.19258 33.9367 8.19907L34.4852 8.993C34.6728 9.26726 34.8749 9.52709 35.0481 9.80136L35.6255 10.5664L36.1596 11.317C36.3425 10.7396 36.5301 10.1334 36.7226 9.49822C36.9103 8.87752 37.069 8.27125 37.2423 7.65055C37.3427 7.66672 37.445 7.66672 37.5454 7.65055L37.8341 7.57837C37.964 7.96811 38.0795 8.4156 38.2094 8.87752C38.3393 9.33944 38.4692 9.78692 38.5992 10.2055L38.9745 11.4325C39.1044 11.7934 39.191 12.1254 39.292 12.3419H38.9889L38.7002 12.4141H38.4115C38.3137 12.4313 38.2172 12.4554 38.1228 12.4863C38.0073 12.0099 37.863 11.4902 37.7186 10.9417C37.5743 10.3932 37.4299 9.81579 37.2567 9.26726C37.0835 9.87353 36.9103 10.4509 36.7515 11.0572C36.5927 11.6635 36.405 12.212 36.2607 12.8183H35.972C35.64 12.3419 35.2791 11.8511 34.9471 11.3748C34.6151 10.8984 34.2398 10.3932 33.8645 9.93127C33.8645 10.5231 33.9511 11.0716 33.9511 11.6057Z" fill="#139BAC"/>
<path d="M41.1686 12.2553C40.9117 12.1986 40.6671 12.0959 40.4468 11.9522C40.2338 11.8141 40.0638 11.6191 39.956 11.3892C39.813 11.123 39.7386 10.8253 39.7395 10.5231C39.7395 10.3499 39.7395 10.1767 39.7395 10.0179C39.7395 9.8591 39.7395 9.72919 39.7395 9.59927C39.7395 9.46936 39.7395 9.35388 39.7395 9.2384C39.7529 9.11365 39.7529 8.98783 39.7395 8.86309C39.7395 8.47334 39.7395 8.15577 39.7395 7.89594C39.7395 7.63611 39.7395 7.49176 39.7395 7.37628H40.6345H40.9376C40.8942 7.80825 40.8942 8.24347 40.9376 8.67543C40.9163 9.08414 40.9163 9.49369 40.9376 9.90241C40.9428 10.2592 40.9962 10.6137 41.0964 10.9562C41.15 11.1743 41.2538 11.377 41.3995 11.548C41.516 11.6874 41.672 11.7881 41.847 11.8367C42.0582 11.8588 42.271 11.8588 42.4822 11.8367C42.7224 11.8425 42.9554 11.7545 43.1318 11.5913C43.3031 11.4325 43.4236 11.2266 43.4782 10.9995C43.5568 10.7175 43.5956 10.426 43.5937 10.1334C43.6143 9.82095 43.6143 9.50751 43.5937 9.19509C43.5937 8.84865 43.5937 8.51665 43.5937 8.19908C43.5937 7.88151 43.5937 7.53507 43.4926 7.2175H44.0412H44.2144V7.63611C44.2144 7.82377 44.2144 8.01142 44.2144 8.27125C44.2144 8.53108 44.2144 8.74761 44.2144 9.02187C44.1938 9.31984 44.1938 9.61887 44.2144 9.91684C44.2633 10.2345 44.2489 10.5588 44.1722 10.8709C44.0954 11.183 43.9576 11.4769 43.7669 11.7356C43.5683 11.9457 43.3288 12.113 43.0632 12.2271C42.7976 12.3413 42.5114 12.4 42.2223 12.3997C41.8662 12.3992 41.5117 12.3506 41.1686 12.2553Z" fill="#139BAC"/>
<path d="M46.6827 10.1334V10.9273H44.8928V10.1189L46.6827 10.1334Z" fill="#139BAC"/>
<path d="M48.8912 7.6361C48.7146 7.61584 48.5363 7.65659 48.386 7.75158C48.3165 7.80087 48.2595 7.86566 48.2194 7.94083C48.1793 8.016 48.1573 8.09947 48.1551 8.18463C48.1404 8.26418 48.1445 8.34606 48.1671 8.42375C48.1896 8.50143 48.23 8.57278 48.285 8.63211C48.3985 8.76074 48.5297 8.87254 48.6747 8.96412C48.8361 9.07651 49.0049 9.17779 49.1799 9.26725C49.3613 9.36263 49.5309 9.47891 49.6852 9.61369C49.8259 9.74376 49.9517 9.88899 50.0605 10.0467C50.1652 10.2721 50.2099 10.5207 50.1904 10.7685C50.1671 10.9918 50.0983 11.2079 49.9883 11.4036C49.8856 11.5954 49.7428 11.7628 49.5697 11.8944C49.3874 12.0277 49.1818 12.1257 48.9634 12.1831C48.7007 12.2278 48.4323 12.2278 48.1695 12.1831C47.9397 12.1706 47.7121 12.1319 47.4911 12.0676C47.3277 12.0149 47.1759 11.9316 47.0436 11.8222C47.0436 11.649 47.1302 11.5047 47.1735 11.3603C47.2273 11.2144 47.2707 11.0649 47.3034 10.9128H47.4478C47.4411 11.0186 47.4411 11.1247 47.4478 11.2304C47.4956 11.3267 47.559 11.4145 47.6354 11.4902C47.7213 11.5563 47.8131 11.6143 47.9097 11.6635C48.0246 11.7258 48.1543 11.7557 48.285 11.7501C48.6026 11.7501 48.8046 11.7501 48.949 11.5768C49.0243 11.5157 49.0853 11.4387 49.1277 11.3515C49.1701 11.2642 49.1929 11.1687 49.1944 11.0716C49.2075 10.9071 49.1614 10.7433 49.0645 10.6097C48.9638 10.4817 48.8355 10.3781 48.6892 10.3066L48.1839 9.97457C48.0002 9.89528 47.8298 9.78816 47.6787 9.65699C47.535 9.52076 47.4176 9.3593 47.3323 9.18064C47.2299 8.97014 47.1898 8.73473 47.2168 8.5022C47.2261 8.27558 47.2853 8.0538 47.39 7.85262C47.4836 7.67131 47.6168 7.51342 47.7798 7.3907C47.9338 7.27857 48.1042 7.19092 48.285 7.13087C48.5 7.09533 48.7195 7.09533 48.9346 7.13087C49.3593 7.13 49.7699 7.28395 50.0893 7.56392L49.945 7.86706C49.9091 8.00117 49.8608 8.13165 49.8006 8.2568H49.6852C49.6382 8.08117 49.5353 7.9256 49.3921 7.81362C49.2488 7.70164 49.073 7.63932 48.8912 7.6361Z" fill="#139BAC"/>
<path d="M53.727 10.3932C53.5518 10.3456 53.3733 10.3118 53.1929 10.2921L52.7165 10.2055H52.1824V10.5953C52.1102 10.9995 52.0814 11.3459 52.0525 11.649C52.0236 11.9522 52.0525 12.2553 51.9515 12.544H51.6916H51.3596C51.2441 12.544 51.1431 12.544 51.0565 12.4718H50.7822C50.7822 12.1976 50.9121 11.8944 50.9699 11.5769C51.0276 11.2593 51.0709 10.9273 51.1431 10.5375L51.273 9.5704C51.273 9.18065 51.3741 8.81978 51.4318 8.51665C51.4895 8.21351 51.4318 7.91037 51.5328 7.57837C51.6143 7.58848 51.6968 7.58848 51.7782 7.57837H52.0958H52.4134H52.6732C52.6058 7.88632 52.5481 8.18945 52.5 8.48777C52.5 8.77647 52.3845 9.13735 52.3268 9.52709L52.7743 9.6137L53.4094 9.70031L54.059 9.80136H54.492C54.492 9.42605 54.6075 9.07961 54.6508 8.77647C54.6941 8.47334 54.6508 8.14133 54.6508 7.8382L54.9251 7.91038H55.2282H55.5458C55.6414 7.89548 55.7388 7.89548 55.8345 7.91038C55.8345 8.21351 55.7045 8.51664 55.6468 8.81978C55.5891 9.12291 55.5458 9.46935 55.488 9.87353L55.3292 10.8262C55.3292 11.2304 55.2138 11.5769 55.1993 11.88C55.1504 12.176 55.1215 12.475 55.1127 12.775C55.0218 12.7891 54.9293 12.7891 54.8385 12.775H54.5209H54.2033C54.1124 12.7611 54.0199 12.7611 53.929 12.775C54.0012 12.4863 54.059 12.1831 54.1167 11.88C54.1744 11.5769 54.2322 11.2304 54.2755 10.8407V10.4221L53.727 10.3932Z" fill="#139BAC"/>
<path d="M59.169 11.548L58.6349 11.3892L58.1297 11.2737L57.5811 11.1438L57.4657 11.548C57.379 11.9377 57.278 12.2842 57.2058 12.5729C57.1336 12.8616 57.047 13.1791 57.047 13.5256L56.7872 13.439L56.4696 13.3524H56.1521H55.9067C55.9829 13.0638 56.0744 12.7795 56.1809 12.5007C56.1809 12.1831 56.3542 11.8511 56.4552 11.4614L56.715 10.5087L56.9604 9.48378C57.047 9.18064 57.0903 8.89194 57.1481 8.58881L57.3935 8.66098L57.711 8.74759L58.0431 8.8342H58.2884C58.1874 9.15177 58.1152 9.42604 58.0142 9.72917C57.9131 10.0323 57.841 10.3643 57.7255 10.7396C57.8708 10.7919 58.0206 10.8305 58.173 10.8551C58.3803 10.9315 58.5925 10.9942 58.8081 11.0428L59.4144 11.1871C59.5602 11.2375 59.7098 11.2761 59.8618 11.3026C59.9485 10.9273 60.0351 10.5808 60.0928 10.2488C60.1506 9.91682 60.2372 9.67143 60.3093 9.3683L60.5403 9.45491L60.8723 9.55595L61.1754 9.62812C61.2667 9.63508 61.3584 9.63508 61.4497 9.62812C61.3342 9.91682 61.262 10.2055 61.161 10.5375C61.0599 10.8695 60.9733 11.1438 60.8723 11.548L60.6413 12.4862C60.5419 12.8283 60.46 13.1752 60.3959 13.5256C60.3093 13.8287 60.2372 14.1174 60.1794 14.4205L59.934 14.204H59.602L59.3133 14.1318H59.0535C59.1401 13.8431 59.2411 13.5544 59.3133 13.2657C59.3855 12.977 59.501 12.6162 59.602 12.2409L59.7175 11.8367L59.169 11.548Z" fill="#139BAC"/>
<path d="M37.7763 58.7359C38.0453 58.4018 38.2913 58.0497 38.5125 57.6822C38.6865 57.3929 38.8224 57.0824 38.9167 56.7583C38.9897 56.4606 39.0284 56.1555 39.0322 55.8489C39.0338 55.6351 39.0095 55.4218 38.96 55.2138C38.9255 55.065 38.8562 54.9265 38.7579 54.8096C38.6909 54.7222 38.6075 54.6487 38.5125 54.5931C38.4406 54.5551 38.3623 54.5306 38.2815 54.5209C38.2101 54.5169 38.1387 54.5276 38.0716 54.5524C38.0045 54.5773 37.9433 54.6157 37.8918 54.6653C37.785 54.7608 37.7011 54.8792 37.6464 55.0117C37.577 55.1469 37.5329 55.2937 37.5165 55.4447C37.5165 55.5891 37.5165 55.7334 37.5165 55.8634H37.4299L37.1123 55.5314L36.7947 55.2427C36.8919 54.9123 37.0884 54.62 37.3577 54.4054C37.6849 54.1587 38.0889 54.0359 38.4981 54.059C38.8223 54.058 39.1444 54.1117 39.4508 54.2178C39.6774 54.2965 39.8808 54.4304 40.0426 54.6075C40.1884 54.7447 40.2933 54.9195 40.3457 55.1127C40.4025 55.2901 40.4317 55.4751 40.4324 55.6613C40.4309 55.8711 40.4018 56.0798 40.3457 56.282C40.2438 56.5385 40.1181 56.7849 39.9704 57.0182C39.7646 57.3473 39.5225 57.6523 39.2487 57.9276C38.8899 58.356 38.499 58.7565 38.0795 59.1257H39.2342C39.6237 59.1469 40.014 59.1469 40.4035 59.1257C40.4035 59.2411 40.4035 59.3422 40.4035 59.4288V60.0206C40.4035 60.1361 40.4035 60.2372 40.4035 60.3093C40.1003 60.3093 39.7972 60.3093 39.4941 60.3093H37.5887C37.2855 60.3093 36.9968 60.3093 36.7081 60.3093V59.934C37.1123 59.4865 37.4876 59.0824 37.7763 58.7359Z" fill="#139BAC"/>
<path d="M41.5872 54.9107C41.7413 54.6662 41.9541 54.4642 42.2062 54.323C42.4583 54.1818 42.7418 54.1059 43.0307 54.1023C43.3183 54.0855 43.605 54.1479 43.8595 54.2828C44.1141 54.4177 44.3267 54.6199 44.4742 54.8674C44.8679 55.5389 45.0491 56.3139 44.9938 57.0903C45.0361 57.9333 44.8622 58.773 44.4886 59.5299C44.3547 59.7961 44.148 60.0189 43.8924 60.1722C43.6369 60.3255 43.3431 60.4031 43.0451 60.396C42.7394 60.4025 42.4369 60.3331 42.1646 60.1939C41.9092 60.0295 41.6965 59.8069 41.5439 59.5443C41.3619 59.2393 41.244 58.9004 41.1974 58.5483C41.1056 58.1117 41.0621 57.6664 41.0675 57.2203C41.0166 56.4166 41.1969 55.6151 41.5872 54.9107ZM43.7091 55.8634C43.6851 55.5769 43.6417 55.2923 43.5792 55.0117C43.5476 54.8589 43.4724 54.7185 43.3627 54.6075C43.2708 54.5264 43.1532 54.4804 43.0307 54.4776C42.9107 54.4852 42.7977 54.5366 42.7131 54.622C42.6013 54.7335 42.5215 54.8731 42.4822 55.0261C42.4156 55.2913 42.3721 55.5618 42.3522 55.8345C42.3522 56.1954 42.3522 56.614 42.3522 57.1192C42.3522 57.6244 42.3522 58.0719 42.3522 58.4328C42.3604 58.7375 42.3894 59.0414 42.4389 59.3422C42.4747 59.5265 42.5538 59.6997 42.6698 59.8474C42.7114 59.9025 42.7664 59.946 42.8296 59.9738C42.8927 60.0016 42.962 60.0128 43.0307 60.0062C43.1471 60.0078 43.2601 59.9667 43.3483 59.8907C43.4601 59.7792 43.5399 59.6396 43.5792 59.4865C43.6406 59.2057 43.6839 58.9212 43.7091 58.6349C43.7091 58.274 43.7091 57.8121 43.7091 57.1914C43.7091 56.5707 43.7236 56.2242 43.7091 55.8634Z" fill="#139BAC"/>
<path d="M45.961 54.9107C46.1141 54.6653 46.3267 54.4626 46.579 54.3213C46.8314 54.18 47.1153 54.1046 47.4045 54.1023C47.6911 54.0917 47.9755 54.1568 48.2289 54.2911C48.4824 54.4254 48.6959 54.6242 48.848 54.8674C49.2359 55.5408 49.4119 56.3154 49.3532 57.0904C49.3993 57.932 49.2304 58.7715 48.8624 59.5299C48.7272 59.795 48.5201 60.0168 48.2649 60.17C48.0097 60.3231 47.7165 60.4014 47.4189 60.396C47.1225 60.4045 46.8297 60.329 46.5743 60.1783C46.319 60.0276 46.1113 59.8079 45.9754 59.5443C45.7998 59.2364 45.6823 58.8988 45.629 58.5483C45.5425 58.1111 45.5038 57.6658 45.5135 57.2203C45.4467 56.4239 45.6016 55.6245 45.961 54.9107ZM48.0829 55.8634C48.0734 55.5754 48.0298 55.2895 47.953 55.0117C47.9133 54.8649 47.8446 54.7274 47.7509 54.6075C47.662 54.5211 47.5429 54.4728 47.4189 54.4728C47.2949 54.4728 47.1758 54.5211 47.0869 54.6075C46.9851 54.7242 46.9111 54.8624 46.8704 55.0117C46.7968 55.2754 46.7532 55.5466 46.7405 55.8201C46.7155 56.248 46.7155 56.6769 46.7405 57.1048C46.7405 57.6245 46.7405 58.0575 46.7405 58.4184C46.7453 58.724 46.7791 59.0285 46.8415 59.3278C46.8731 59.5109 46.9472 59.6839 47.0581 59.833C47.105 59.8894 47.1651 59.9334 47.2331 59.9611C47.3011 59.9888 47.3748 59.9993 47.4478 59.9918C47.555 59.9904 47.6579 59.9492 47.7365 59.8763C47.8587 59.773 47.9405 59.6299 47.9675 59.4721C48.0417 59.1933 48.0901 58.9082 48.1118 58.6205C48.1118 58.2596 48.1118 57.7977 48.1118 57.177C48.1118 56.5563 48.1118 56.2243 48.0829 55.8634Z" fill="#139BAC"/>
<path d="M50.6235 56.7439C50.5154 56.6554 50.4141 56.5589 50.3204 56.4552C50.2277 56.34 50.159 56.2075 50.1183 56.0655C49.9867 55.7116 49.9867 55.3223 50.1183 54.9684C50.2123 54.787 50.334 54.6215 50.4791 54.4776C50.6479 54.3692 50.8268 54.2773 51.0132 54.2034C51.2535 54.1395 51.5008 54.1055 51.7494 54.1023C52.0043 54.0986 52.258 54.1376 52.5 54.2178C52.7073 54.2843 52.8989 54.3924 53.063 54.5354C53.1965 54.6629 53.3043 54.8148 53.3806 54.9829C53.463 55.1536 53.5026 55.3419 53.496 55.5314C53.5275 55.7032 53.5275 55.8793 53.496 56.051C53.4531 56.1995 53.3794 56.3373 53.2795 56.4552C53.2094 56.5671 53.1094 56.6571 52.9908 56.7151C52.8776 56.7958 52.7503 56.8545 52.6155 56.8883V56.9605C52.7542 56.9802 52.8871 57.0294 53.0053 57.1048C53.1516 57.1763 53.2798 57.28 53.3806 57.4079C53.4867 57.5476 53.5786 57.6975 53.6548 57.8554C53.7068 58.0584 53.7359 58.2666 53.7414 58.4761C53.7502 58.7715 53.7012 59.0657 53.5971 59.3422C53.507 59.5702 53.3634 59.7732 53.1785 59.9341C53.0093 60.1026 52.801 60.2266 52.5722 60.2949C52.3135 60.3653 52.0463 60.3993 51.7783 60.396C51.5243 60.4018 51.271 60.3677 51.0277 60.2949C50.7985 60.2432 50.5885 60.1281 50.4214 59.9629C50.2486 59.8058 50.1108 59.614 50.0172 59.4C49.9212 59.1513 49.8723 58.887 49.8729 58.6205C49.8765 58.3966 49.9056 58.1738 49.9595 57.9565C50.0313 57.7855 50.1183 57.6212 50.2193 57.4657C50.3251 57.336 50.4463 57.2197 50.5802 57.1192C50.7151 57.0434 50.8613 56.9898 51.0132 56.9605V56.8305C50.8797 56.8213 50.7484 56.7921 50.6235 56.7439ZM52.2979 57.509C52.2516 57.4078 52.179 57.3209 52.0875 57.2574C51.9961 57.1939 51.8893 57.1561 51.7783 57.1481C51.6716 57.1519 51.5684 57.1866 51.4812 57.2482C51.3941 57.3097 51.3267 57.3953 51.2875 57.4945C51.1383 57.8457 51.0602 58.223 51.0577 58.6046C51.0553 58.9862 51.1284 59.3644 51.2731 59.7175C51.3135 59.8228 51.3847 59.9135 51.4774 59.9779C51.5701 60.0422 51.6799 60.0772 51.7927 60.0784C51.895 60.066 51.9928 60.0294 52.0782 59.9716C52.1635 59.9139 52.2339 59.8367 52.2835 59.7464C52.4535 59.3915 52.5281 58.9985 52.5 58.606C52.541 58.2285 52.4708 57.8472 52.2979 57.509ZM52.2979 54.7952C52.2584 54.7014 52.1921 54.6214 52.1074 54.5649C52.0228 54.5085 51.9234 54.4781 51.8216 54.4776C51.7109 54.4702 51.6007 54.4985 51.5072 54.5582C51.4137 54.618 51.3418 54.7061 51.3019 54.8096C51.1776 55.0908 51.1231 55.3978 51.1431 55.7046C51.1242 55.984 51.195 56.2622 51.3452 56.4985C51.3937 56.5756 51.4593 56.6404 51.5369 56.688C51.6145 56.7355 51.7021 56.7646 51.7927 56.7728C51.8904 56.7708 51.9856 56.7413 52.0673 56.6877C52.149 56.6341 52.2139 56.5585 52.2546 56.4697C52.3938 56.2031 52.4587 55.9039 52.4423 55.6036C52.4526 55.3269 52.4034 55.0512 52.2979 54.7952Z" fill="#139BAC"/>
<path d="M58.8514 39.3353V48.6747H46.1198V33.186H49.3243V27.4409H55.719V30.631H52.5V36.3761H49.3243V39.3353H52.5V42.5254H49.3243V45.499H55.6469V39.3353H58.8514Z" fill="#139BAC"/>
<path d="M44.0844 33.186V48.6747H31.3672V39.3353H34.5718V45.499H40.8943V42.5254H37.6897V39.3353H40.8943V36.3761H37.6897V30.631H34.514V27.4409H40.8943V33.186H44.0844Z" fill="#139BAC"/>
<path d="M55.719 22.1288V25.319H46.6972V31.0063H43.507V25.319H34.514V22.1288H43.507V16.4414H46.6972V22.1288H55.719Z" fill="#139BAC"/>
<path d="M107.569 40.4901V23.3269C106.682 24.4962 105.717 25.6054 104.682 26.647C104.102 25.5089 103.426 24.4223 102.662 23.3991C104.193 21.9328 105.58 20.3231 106.804 18.5923C108.113 16.7753 109.254 14.8426 110.211 12.8183L113.098 13.8576V13.2369H117.053L117.4 11.3748C117.4 10.9706 117.53 10.6386 117.587 10.4076H114.253V7.75159H118.02C118.097 7.23193 118.198 6.48131 118.324 5.49973C118.324 5.21103 118.324 5.00894 118.324 4.87903L121.427 5.15329C121.427 5.38425 121.427 5.73069 121.268 6.19261L121.138 7.75159H127.345V13.1647H129.511V15.9507H113.127V14.3772C112.42 15.8207 111.683 17.1632 110.803 18.5634V40.4901H107.569ZM104.971 15.1856C104.419 14.2221 103.797 13.3006 103.109 12.4285C104.4 11.3486 105.607 10.1711 106.718 8.90639C107.803 7.67155 108.769 6.33769 109.605 4.92233L112.853 6.12044C110.74 9.53673 108.1 12.5964 105.029 15.1856H104.971ZM120.994 40.4901V36.2607H112.333V33.4747H114.311V27.7007H120.936V25.5644H114.339V17.7117H127.865V25.5644H124.141V27.7729H128.471V30.53H124.141V33.417H129.265V36.2029H124.141V40.4324L120.994 40.4901ZM117.082 23.1681H125.021V20.1512H117.082V23.1681ZM117.313 33.518H120.994V30.631H117.313V33.518ZM120.2 13.3091H124.386V10.4221H120.705C120.561 11.548 120.33 12.4863 120.171 13.208L120.2 13.3091ZM129.424 40.5912C129.267 39.396 128.926 38.2323 128.414 37.1412C129.554 37.1412 130.795 37.1412 132.138 37.1412C132.222 37.1503 132.306 37.1406 132.386 37.1126C132.465 37.0846 132.537 37.0392 132.597 36.9796C132.657 36.9201 132.702 36.8479 132.73 36.7684C132.758 36.689 132.768 36.6042 132.759 36.5205V20.7431H128.876V17.5096H139.182V20.7431H136.122V36.4916C136.15 37.2162 136.047 37.9398 135.819 38.628C135.609 39.166 135.208 39.6078 134.693 39.8694C132.98 40.4016 131.184 40.6121 129.395 40.4901L129.424 40.5912ZM129.54 10.5953V7.24636H138.533V10.4942L129.54 10.5953Z" fill="#4B5563"/>
<path d="M142.877 39.3209V35.8421H158.222V26.9213H147.179V23.4713H158.222V15.7341H149.561C148.499 17.8673 147.212 19.8804 145.721 21.7391C144.708 20.893 143.604 20.162 142.43 19.5594C144.118 17.7181 145.515 15.6298 146.573 13.3668C147.785 10.8581 148.752 8.238 149.46 5.54304L153.17 6.3947C152.601 8.35264 151.931 10.2799 151.163 12.1687H158.178V4.9512H161.888V12.1687H175.414V15.7053H161.932V23.4424H173.97V26.8924H161.917V35.8132H177.262V39.292L142.877 39.3209Z" fill="#4B5563"/>
<path d="M182.934 37.4588C182.337 36.7417 181.581 36.1734 180.726 35.7988C181.826 32.3843 182.315 28.8023 182.169 25.2179V20.7431H184.696V25.319C184.877 29.4403 184.28 33.559 182.934 37.4588ZM186.962 40.519V18.2891H181.347V15.1134H195.334V18.2891H190.065V40.519H186.962ZM182.386 10.6386V7.4629H194.67V10.6386H182.386ZM192.274 34.312V20.6565H194.786V34.2831L192.274 34.312ZM196.07 9.94572V6.85663H215.832V9.91685L196.07 9.94572ZM196.345 40.519V23.6301H215.586V40.4901H212.339V39.1333H199.52V40.4901L196.345 40.519ZM197.788 21.3782V12.3564H214.172V21.3493L197.788 21.3782ZM199.463 29.9382H204.284V26.5171H199.52L199.463 29.9382ZM199.463 36.2463H204.284V32.7386H199.52L199.463 36.2463ZM201.079 18.7078H210.736V15.099H201.079V18.7078ZM207.315 29.9382H212.281V26.5171H207.315V29.9382ZM207.315 36.2463H212.281V32.7386H207.315V36.2463Z" fill="#4B5563"/>
<path d="M227.871 40.4468V25.0736C226.219 28.8668 223.957 32.3632 221.173 35.4234C220.624 34.2139 219.987 33.0463 219.267 31.9302C220.932 30.2986 222.387 28.4656 223.598 26.4738C224.977 24.3549 226.156 22.1127 227.12 19.7759H220.162V16.4126H227.914V10.6386C225.489 11.1294 223.15 11.5047 220.899 11.7645C220.696 10.7818 220.33 9.84008 219.816 8.97856C225.213 8.35415 230.513 7.06446 235.593 5.13885L238.177 7.89594C235.98 8.72157 233.727 9.39204 231.436 9.9024V16.4126H238.451V19.7471H231.436V22.302C233.274 23.6397 235.613 25.5644 238.451 28.076L236.402 31.1507C235.093 29.6494 233.438 27.9413 231.436 26.0263V40.4612L227.871 40.4468ZM240.689 30.8476V9.57039H244.182V30.8476H240.689ZM244.37 40.4901C244.128 39.1986 243.7 37.949 243.099 36.7803C245.712 36.8814 247.661 36.9102 248.946 36.7803C249.624 36.7803 249.956 36.4772 249.956 35.8565V5.54303H253.565V35.8565C253.605 36.7307 253.452 37.603 253.117 38.4115C252.801 39.012 252.293 39.4896 251.674 39.7684C249.288 40.3679 246.828 40.6207 244.37 40.519V40.4901Z" fill="#4B5563"/>
<path d="M258.516 22.8939V19.6027H278.35V22.8939H258.516ZM259.44 12.1254V8.99299H266.888V5.15329H270.367V8.99299H277.902V12.0821L259.44 12.1254ZM260.883 40.519V25.8819H276.459V40.3169H272.937V38.4259H264.276V40.519H260.883ZM263.207 19.3717C262.995 17.3073 262.485 15.2846 261.692 13.3668L264.68 12.7028C265.53 14.5881 266.104 16.5863 266.383 18.6356L263.207 19.3717ZM264.218 35.2502H272.879V29.0576H264.218V35.2502ZM273.326 19.3717L270.439 18.6356C271.247 16.6256 271.893 14.555 272.374 12.443L275.78 13.2224L275.087 15.0413C274.351 17.2209 273.759 18.6789 273.399 19.4439L273.326 19.3717ZM279.678 40.4468V7.20306H290.894L291.471 7.04427L294.142 8.71873C292.034 13.9153 290.345 17.7406 289.118 20.2667C290.425 21.4179 291.486 22.8201 292.24 24.3897C292.994 25.9594 293.425 27.6647 293.506 29.4041C293.506 32.089 292.842 33.8789 291.529 34.745C290.747 35.255 289.858 35.5762 288.931 35.6833C288.469 35.6833 287.617 35.6833 286.404 35.6833H285.755C285.725 34.4342 285.393 33.211 284.788 32.1178C285.667 32.1785 286.55 32.1785 287.429 32.1178C287.965 32.1131 288.491 31.9742 288.959 31.7137C289.667 31.3095 290.013 30.3423 290.013 28.8267C290.013 26.0455 288.488 23.2836 285.437 20.541C286.52 18.1881 287.862 14.767 289.436 10.4365H283.272V40.519L279.678 40.4468Z" fill="#4B5563"/>
<path d="M300.551 24.0198V14.7959C300.024 15.4759 299.455 16.122 298.847 16.7301C298.36 15.8021 297.731 14.9549 296.985 14.2185C299.566 11.6355 301.491 8.47292 302.6 4.99451L305.487 5.77399C305.155 6.7267 304.708 7.82376 304.131 9.06517H307.018C307.628 7.93524 308.144 6.75726 308.562 5.54303L311.55 6.19261C310.886 7.39071 310.309 8.34342 309.847 9.07961H314.683V11.4469H309.659V13.3379H313.845V13.9586C316.193 11.3731 317.973 8.3244 319.071 5.00894L321.958 5.83174C321.698 6.55348 321.236 7.63611 320.514 9.07961H323.185C323.729 7.93226 324.21 6.75652 324.628 5.55747L327.616 6.17817L327.458 6.45244C326.779 7.66498 326.274 8.53108 325.942 9.07961H331.528V11.4469H326.115V13.3379H330.734V15.5465H326.115V17.4519H330.734V19.7326H326.115V21.6669H332.12V24.0342H317.021V14.8825C316.469 15.6264 315.871 16.3351 315.231 17.0044C314.798 16.3479 314.315 15.7254 313.788 15.1423V15.532H309.659V17.4375H313.845V19.7182H309.659V21.6525H315V24.0198H300.551ZM330.229 40.6056C325.005 40.1311 319.868 38.9562 314.957 37.1123C309.787 38.9055 304.415 40.0499 298.963 40.519C298.689 39.3557 298.199 38.2541 297.519 37.2711C301.972 36.9664 306.383 36.212 310.684 35.0193C308.307 33.7148 306.161 32.0274 304.333 30.0248L306.397 29.0576H299.685V26.1706H325.249L325.913 26.0118L328.352 27.4553C326.168 30.6793 323.183 33.2807 319.691 35.0048C323.853 36.1276 328.111 36.8574 332.409 37.1845C331.491 38.1911 330.754 39.3484 330.229 40.6056ZM303.611 13.3235H306.628V11.4325H303.611V13.3235ZM303.611 17.4375H306.628V15.532H303.611V17.4375ZM303.611 21.6525H306.628V19.7182H303.611V21.6525ZM315.274 33.4747C317.891 32.4291 320.304 30.9342 322.405 29.0576H308.216C310.264 30.9688 312.66 32.4683 315.274 33.4747ZM320.081 13.2658H323.214V11.4325H320.081V13.2658ZM320.081 17.3797H323.214V15.532H320.081V17.3797ZM320.081 21.5947H323.214V19.7182H320.081V21.5947Z" fill="#4B5563"/>
<path d="M343.596 40.4468V24.8715C342.121 28.6947 340.013 32.2424 337.36 35.3657C336.862 34.1812 336.222 33.0615 335.454 32.0312C337.046 30.3789 338.415 28.5251 339.525 26.5171C340.802 24.349 341.865 22.0624 342.701 19.6893H336.378V16.4126H343.596V10.6386C342.422 10.8407 340.69 11.0861 338.399 11.3748L337.62 11.4469C337.402 10.4813 337.068 9.54572 336.624 8.66098C341.521 8.12923 346.34 7.03457 350.987 5.39868L353.397 8.19907C351.379 8.93924 349.303 9.50901 347.19 9.90239V16.4126H353.426V19.7326H347.19V20.6276C347.912 21.3493 349.038 22.5763 350.568 24.3085C352.011 25.9685 352.935 27.0945 353.455 27.7152L351.29 30.6022C350.045 28.5543 348.686 26.5784 347.219 24.6838V40.4468H343.596ZM354.667 38.7435V8.55994H369.391V38.4692H365.71V35.5822H358.161V38.729L354.667 38.7435ZM358.161 32.1611H365.71V12.0821H358.161V32.1611Z" fill="#4B5563"/>
<path d="M377.951 40.4901V27.3543H387.608V25.9108H375.872V23.4424H409.261V25.8386H397.02V27.2821H407.355V40.4179H403.992V39.5663H381.213V40.4179L377.951 40.4901ZM376.868 22.0422V6.30808H392.603V8.51663H383.422L384.865 8.86307C384.793 9.06516 384.663 9.38273 384.476 9.78691C384.412 9.88485 384.363 9.99192 384.331 10.1045H391.332V11.9233H387.536V13.3668H392.112V15.2578H387.579C389.088 16.0307 390.515 16.9545 391.838 18.0148L390.394 19.6027C389.157 18.6053 387.85 17.6983 386.482 16.8889C385.283 18.2707 383.709 19.2738 381.95 19.7759C381.522 19.113 380.985 18.5273 380.362 18.0437C382.715 17.4519 384.187 16.5136 384.779 15.2433H380.391V13.3668H385.197V11.9233H383.249C382.923 12.3974 382.551 12.8375 382.137 13.2369C381.566 12.7625 380.923 12.3824 380.232 12.1109C381.299 11.1126 382.124 9.88309 382.642 8.51663H379.755V19.8625H392.992V22.0422H376.868ZM381.199 34.3264H383.278C382.79 33.6235 382.229 32.975 381.603 32.3921C384.837 31.8724 386.742 30.9486 387.377 29.404H381.257L381.199 34.3264ZM381.199 37.6175H403.977V36.2607H381.213L381.199 37.6175ZM383.595 34.3264H403.977V32.8829C403.742 32.9026 403.505 32.9026 403.27 32.8829H398.088C397.012 32.9801 395.929 32.8013 394.941 32.3632C394.648 32.0847 394.426 31.7404 394.293 31.3588C394.16 30.9771 394.12 30.5693 394.176 30.1691V29.404H390.178C389.725 31.704 387.536 33.3448 383.61 34.3264H383.595ZM390.293 27.3543H394.176V25.9108H390.293V27.3543ZM407.918 23.3558C405.253 23.0267 402.67 22.2147 400.297 20.9596C398.401 21.8336 396.41 22.4828 394.364 22.8939C394.054 22.0505 393.561 21.2864 392.92 20.6564C394.603 20.3751 396.253 19.9204 397.843 19.2996C396.663 18.3332 395.682 17.1468 394.956 15.8063L396.847 15.3444H393.96V13.7132H393.801C393.267 12.8862 392.599 12.1543 391.823 11.548C392.884 11.2274 393.837 10.6235 394.58 9.80135C394.994 9.23222 395.208 8.54168 395.187 7.83819V5.81729H405.031V9.19508C404.996 9.50782 405.035 9.82455 405.147 10.1189C405.147 10.2055 405.349 10.2344 405.609 10.2344H406.504C406.686 10.2504 406.87 10.2504 407.052 10.2344C407.229 10.1275 407.358 9.95709 407.413 9.75804C407.527 9.21202 407.585 8.6558 407.586 8.09802C408.228 8.60085 408.95 8.99131 409.723 9.25282C409.72 10.038 409.574 10.816 409.289 11.548C409.052 11.9608 408.664 12.2659 408.207 12.3996C407.718 12.6019 407.191 12.6954 406.662 12.6739H404.93C404.558 12.6998 404.185 12.6506 403.833 12.529C403.481 12.4075 403.157 12.2162 402.88 11.9666C402.302 11.123 402.064 10.0913 402.216 9.0796V8.34341H397.958C397.92 9.31894 397.635 10.2689 397.13 11.1045C396.625 11.9401 395.917 12.634 395.071 13.1214H405.103L405.652 13.0348L407.384 13.6555C406.529 15.8986 405.058 17.8549 403.14 19.2996C405.279 20.0572 407.505 20.5422 409.766 20.7431C408.979 21.476 408.354 22.3661 407.933 23.3558H407.918ZM398.434 31.194H402.851C403.443 31.194 403.79 31.1074 403.891 30.9486H403.977V29.404H397.005V30.299C397.005 30.6888 397.077 30.9342 397.251 31.0352C397.634 31.1747 398.043 31.2289 398.449 31.194H398.434ZM400.6 17.9715C401.707 17.2701 402.684 16.3811 403.487 15.3444H397.713C398.483 16.41 399.466 17.3045 400.6 17.9715Z" fill="#4B5563"/>
<path d="M415.034 40.519V6.58236H423.551L424.1 6.46688L426.467 7.82376C424.879 12.5777 423.652 16.0132 422.786 18.1303C424.81 20.3286 425.951 23.197 425.991 26.1851C425.991 28.538 425.471 30.0825 424.403 30.8043C423.768 31.206 423.054 31.4669 422.31 31.5693C421.46 31.6455 420.605 31.6455 419.755 31.5693C419.758 30.4767 419.463 29.4038 418.903 28.4658C419.56 28.5362 420.223 28.5362 420.881 28.4658C421.306 28.4776 421.725 28.3565 422.079 28.1194C422.555 27.7873 422.786 26.9645 422.786 25.6798C422.686 22.963 421.562 20.3847 419.639 18.4623C420.419 16.427 421.328 13.5256 422.353 9.80136H418.21V40.519H415.034ZM425.644 40.519C425.428 40.0038 425.147 39.5186 424.807 39.0755C424.493 38.5928 424.109 38.1598 423.667 37.7908C426.181 37.1486 428.374 35.6082 429.83 33.4603C430.99 31.2301 431.603 28.7564 431.62 26.2428H426.886V22.9805H448.538V26.2717H442.216V35.6833C442.178 36.0127 442.228 36.3463 442.36 36.6504C442.447 36.7803 442.663 36.8381 443.038 36.8381H445.088C445.449 36.8381 445.68 36.5638 445.795 36.0153C445.966 34.7477 446.038 33.4688 446.012 32.19C446.915 32.8704 447.962 33.3346 449.072 33.5469C449.078 35.3285 448.735 37.0939 448.062 38.7435C447.798 39.1831 447.416 39.5395 446.959 39.7718C446.502 40.0042 445.988 40.103 445.478 40.0571H442.447C441.927 40.1237 441.399 40.0754 440.9 39.9158C440.402 39.7562 439.944 39.489 439.56 39.1332C438.96 38.099 438.702 36.9016 438.823 35.7122V26.2717H435.099C435.015 29.3463 434.277 32.3677 432.934 35.1348C431.228 37.7638 428.62 39.6787 425.601 40.519H425.644ZM429.368 19.2996V16.5425H426.481V9.325H435.388V5.08112H438.867V9.29613H448.524V16.5136H445.348V19.2996H429.368ZM429.628 16.1527H445.131V12.3997H429.628V16.1527Z" fill="#4B5563"/>
<path d="M107.266 75.0763C105.276 71.8841 104.216 68.1996 104.206 64.4377C104.211 60.6887 105.272 57.0168 107.266 53.8425L108.71 54.4776C106.997 57.5205 106.098 60.9533 106.098 64.445C106.098 67.9366 106.997 71.3694 108.71 74.4123L107.266 75.0763Z" fill="#4B5563"/>
<path d="M117.01 72.5791C116.859 71.9764 116.595 71.4081 116.23 70.9046C118.748 70.8327 121.246 70.4398 123.664 69.7354L120.777 69.0714L120.431 69.5477L118.612 68.9415C119.218 68.1475 119.854 67.2526 120.532 66.2566H115.942V64.6543H121.571C122.149 63.7593 122.582 63.0664 122.885 62.5756L124.328 62.9654V59.5732C123.306 60.5882 122.156 61.4665 120.907 62.1859C119.638 62.9314 118.287 63.5272 116.88 63.9614C116.568 63.4182 116.168 62.9304 115.696 62.5179C116.917 62.2149 118.102 61.7843 119.233 61.2332C120.314 60.7233 121.331 60.0886 122.264 59.3422H116.23V57.6966H124.343V55.9355C122.25 56.0799 120.157 56.1521 118.078 56.1809C118.007 55.6859 117.876 55.2012 117.688 54.7374C120.215 54.7374 122.654 54.5642 124.992 54.3621C127.028 54.2349 129.053 53.9746 131.055 53.5826L132.499 55.0261C130.444 55.4407 128.367 55.7299 126.277 55.8922V57.6966H134.433V59.27H128.385C129.329 59.9878 130.356 60.5888 131.445 61.06C132.563 61.5679 133.728 61.9644 134.924 62.2436C134.434 62.7144 134.016 63.2542 133.682 63.8459C132.294 63.4197 130.957 62.8387 129.698 62.1137C128.446 61.4284 127.295 60.5734 126.277 59.5732V63.153H124.834C124.699 63.384 124.482 63.716 124.184 64.149L123.867 64.6543H134.751V66.2566H130.42C129.922 67.3603 129.194 68.3446 128.284 69.1436C130.238 69.6453 132.165 70.2476 134.058 70.9479L132.903 72.5502C130.798 71.7185 128.649 71.0053 126.465 70.4138C123.481 71.7344 120.271 72.4695 117.01 72.5791ZM126.032 68.595C126.929 67.9899 127.679 67.1907 128.226 66.2566H122.712L121.759 67.7001C122.986 67.8877 124.415 68.2053 126.032 68.595Z" fill="#4B5563"/>
<path d="M142.747 58.4905V56.946H151.033V58.4905H142.747ZM143.686 72.3048V65.3327H150.182V71.4387H145.389V72.3048H143.686ZM143.686 61.2765V59.7175H150.196V61.161L143.686 61.2765ZM143.686 64.048V62.6045H150.196V64.048H143.686ZM143.801 55.7335V54.2178H150.225V55.7335H143.801ZM145.389 69.822H148.464V66.935H145.389V69.822ZM157.11 72.2904C156.773 72.3321 156.431 72.3008 156.108 72.1987C155.784 72.0965 155.486 71.926 155.234 71.6985C154.831 70.9997 154.659 70.1913 154.743 69.3889V63.9037L151.004 64.4955L150.716 62.6189L154.743 62.0271V57.1048L151.697 57.6533C151.57 57.0827 151.35 56.5367 151.048 56.0366C153.925 55.617 156.741 54.8512 159.434 53.7559L160.979 55.286C159.578 55.886 158.129 56.3688 156.648 56.7295V61.8539L161.542 61.1177L161.874 62.9221L156.648 63.7304V69.5044C156.617 69.7995 156.662 70.0975 156.778 70.3705C156.865 70.5004 157.081 70.5582 157.399 70.5582H159.42C159.723 70.5582 159.911 70.3561 160.012 69.9375C160.142 69.1162 160.209 68.2862 160.214 67.4547C160.741 67.8429 161.339 68.1226 161.975 68.2775C161.985 69.3812 161.774 70.4757 161.354 71.4965C161.179 71.8009 160.919 72.0484 160.607 72.2097C160.295 72.3709 159.943 72.439 159.593 72.4059L157.11 72.2904Z" fill="#4B5563"/>
<path d="M172.007 58.0142V56.8305H178.445V55.9355H170.463V54.6653H178.445V53.5105H180.394V54.6653H188.55V55.9355H180.394V56.8305H186.962V58.0142H172.007ZM170.564 72.1171V70.7747H178.517V69.822H172.527V68.6095H178.46V67.8011H174.201H172.065L171.978 66.5741H175.039C175.125 66.4731 175.241 66.2999 175.414 66.0978L175.804 65.6214H172.917V64.5099H186.067V65.6214H184.032C185.174 66.138 186.261 66.7666 187.279 67.498L186.139 68.5084C185.732 68.1879 185.308 67.8891 184.869 67.6134L180.538 67.7H180.408V68.5661H186.673V69.822H180.408V70.7314H188.521V72.0738L170.564 72.1171ZM170.838 65.5637V62.6045H188.29V65.5925H186.471V63.8459H172.527V65.5637H170.838ZM172.931 61.825V58.7792H186.254V61.825H172.931ZM174.735 60.7857H184.364V59.7897H174.735V60.7857ZM177.132 66.6607H183.021C182.554 66.4061 182.072 66.1795 181.578 65.9823L181.924 65.708H178.07C177.666 66.0833 177.329 66.4009 177.059 66.6607H177.132Z" fill="#4B5563"/>
<path d="M202.667 72.377V67.8877L202.277 68.0609L197.774 69.9808L196.893 68.0321C198.337 67.5701 200.228 66.8773 202.667 65.9534V60.5259H197.557V58.5916H202.667V53.9435H204.659V72.4203L202.667 72.377ZM210.448 72.146C210.061 72.1909 209.67 72.1537 209.3 72.0368C208.929 71.9198 208.587 71.7259 208.297 71.4676C207.839 70.6987 207.642 69.8026 207.734 68.9126V53.9435H209.74V60.4393C211.384 59.4332 212.939 58.2887 214.388 57.0182L215.832 58.7215C213.869 60.0943 211.825 61.3476 209.711 62.4746V68.9415C209.673 69.3066 209.733 69.6753 209.885 70.0096C210 70.1684 210.274 70.255 210.693 70.255H213.32C213.753 70.255 214.042 69.9663 214.201 69.3889C214.377 68.2665 214.474 67.1329 214.489 65.9967C215.035 66.4231 215.664 66.7282 216.337 66.8917C216.351 68.2791 216.116 69.6577 215.644 70.9624C215.444 71.3516 215.133 71.6722 214.75 71.8832C214.367 72.0941 213.929 72.1856 213.493 72.146H210.448Z" fill="#4B5563"/>
<path d="M225.806 72.5646V65.4915H230.96V64.6831H224.666V63.3984H242.58V64.6831H236.041V65.4915H241.584V72.5646H239.779V72.1027H227.582V72.5646H225.806ZM225.229 62.6767V54.2322H233.645V55.387H228.737L229.473 55.5747C229.417 55.7475 229.35 55.9163 229.271 56.0799C229.234 56.1281 229.205 56.1816 229.184 56.2387H232.952V57.2203H230.916V57.9997H233.356V59.0246H230.931C231.741 59.4223 232.505 59.9062 233.212 60.4681L232.446 61.3198C231.786 60.787 231.086 60.3045 230.353 59.8763C229.711 60.6173 228.869 61.1584 227.928 61.4353C227.698 61.0781 227.41 60.7612 227.077 60.497C227.551 60.4394 228.008 60.2807 228.417 60.0317C228.825 59.7828 229.175 59.4492 229.444 59.0535H227.077V58.0286H229.646V57.2491H228.607C228.428 57.5039 228.225 57.7407 228 57.9564C227.704 57.6933 227.362 57.4878 226.99 57.3502C227.561 56.8125 228.001 56.1507 228.275 55.4159H226.701V61.493H233.789V62.6767H225.229ZM227.553 69.259H228.65C228.391 68.881 228.09 68.5325 227.755 68.2197C229.487 67.9502 230.512 67.4162 230.83 66.6174H227.553V69.259ZM227.553 71.0201H239.751V70.2983H227.553V71.0201ZM228.838 69.259H239.751V68.5084H239.375H236.604C236.025 68.5609 235.443 68.4614 234.915 68.2197C234.756 68.0729 234.635 67.89 234.562 67.6864C234.489 67.4828 234.467 67.2647 234.496 67.0505V66.5886H232.36C232.114 67.8588 230.945 68.7394 228.823 69.259H228.838ZM232.432 65.4915H234.496V64.6831H232.432V65.4915ZM241.815 63.384C240.382 63.2081 238.992 62.7728 237.715 62.0993C236.708 62.5745 235.647 62.9236 234.554 63.1386C234.384 62.6874 234.118 62.2785 233.774 61.9405C234.699 61.7771 235.604 61.5158 236.474 61.161C235.829 60.6527 235.294 60.0193 234.9 59.2989L235.911 59.0535H234.381V58.274H234.294C234.012 57.8317 233.655 57.4411 233.24 57.1192C233.796 56.9388 234.294 56.6152 234.684 56.1809C234.907 55.8753 235.023 55.5053 235.016 55.1272V54.0446H240.371V55.8201C240.371 56.1232 240.371 56.282 240.371 56.3253C240.371 56.3686 240.487 56.3253 240.617 56.3253H241.396C241.486 56.2684 241.552 56.1814 241.584 56.0799C241.647 55.7857 241.681 55.4859 241.685 55.1849C242.028 55.4532 242.414 55.663 242.825 55.8056C242.822 56.2251 242.744 56.6406 242.594 57.0326C242.532 57.1415 242.449 57.2371 242.35 57.3139C242.251 57.3907 242.138 57.4471 242.017 57.4801C241.752 57.5911 241.466 57.6404 241.18 57.6244H240.256C239.852 57.6543 239.453 57.5248 239.144 57.2636C238.87 56.8349 238.748 56.3265 238.798 55.8201V55.387H236.517C236.496 55.9121 236.341 56.4231 236.065 56.8706C235.79 57.3181 235.403 57.6871 234.944 57.942H240.371H240.66L241.598 58.274C241.106 59.4289 240.307 60.4272 239.289 61.161C240.434 61.5772 241.627 61.8488 242.84 61.9694C242.399 62.3609 242.05 62.8436 241.815 63.384ZM236.719 67.5846H239.087C239.404 67.5846 239.592 67.5413 239.65 67.4546V66.603H236.041V67.0793C236.041 67.2959 236.041 67.4258 236.185 67.4835C236.372 67.5614 236.575 67.596 236.777 67.5846H236.719ZM237.845 60.497C238.452 60.1147 238.985 59.6256 239.419 59.0535H236.329C236.745 59.6413 237.282 60.1334 237.903 60.497H237.845Z" fill="#4B5563"/>
<path d="M257.448 72.5791C257.331 72.0007 257.121 71.445 256.827 70.9335C258.141 70.9335 259.021 70.9335 259.483 70.9335C259.604 70.9335 259.723 70.9037 259.83 70.8469C259.861 70.815 259.886 70.7764 259.901 70.7339C259.916 70.6915 259.921 70.6462 259.916 70.6015V68.6383H251.919V67.0793H259.931V66.0256H261.013C261.662 65.7002 262.288 65.3338 262.89 64.9285H255.528V63.485H264.738L265.156 63.384L266.253 64.3511C264.886 65.4204 263.399 66.3263 261.822 67.0505H269.862V68.6095H261.822V70.6448C261.837 71.0149 261.773 71.384 261.634 71.7274C261.462 71.9985 261.194 72.1945 260.883 72.2759C259.757 72.5315 258.601 72.6334 257.448 72.5791ZM252.049 64.8564V60.9012H253.666L253.247 54.4199L254.474 54.6941C255.124 54.492 256.077 54.16 257.361 53.6693L258.314 54.7374C257.305 55.1746 256.256 55.513 255.182 55.7479V56.4696H258.069V57.7255H255.182V58.6782H258.069V59.9052C258.693 59.6091 259.292 59.2615 259.858 58.8658C259.474 58.606 259.069 58.3606 258.646 58.1297L259.584 57.3646C260.025 57.5795 260.449 57.8255 260.855 58.1008C261.198 57.8035 261.508 57.4695 261.778 57.1048L263.092 57.4945C262.743 57.9626 262.352 58.3975 261.923 58.7937C262.345 59.0805 262.741 59.4042 263.106 59.7608L262.139 60.6269C261.774 60.2611 261.378 59.9279 260.956 59.6309C260.373 60.0801 259.755 60.4808 259.108 60.829C258.796 60.4925 258.448 60.1923 258.069 59.934H255.384V60.9012H266.354L266.455 59.934H263.684V58.6782H266.571L266.657 57.7255H263.77V56.4696H266.744V55.5169H263.655V54.2611H268.635C268.505 56.8161 268.361 59.0246 268.187 60.9012H269.746V64.8564H267.798V62.3302H253.825V64.8564H252.049ZM259.151 57.2058C258.83 56.9036 258.493 56.6193 258.141 56.3542C258.745 56.0909 259.32 55.7669 259.858 55.387C259.469 55.1265 259.064 54.8903 258.646 54.6797L259.555 53.9146C260.006 54.1255 260.445 54.3617 260.869 54.622C261.175 54.3451 261.459 54.0459 261.721 53.727L263.005 54.1167C262.698 54.5569 262.334 54.9548 261.923 55.3004C262.306 55.5597 262.668 55.8493 263.005 56.1665L262.053 57.047C261.713 56.7054 261.346 56.3916 260.956 56.1088C260.379 56.5222 259.771 56.8891 259.137 57.2058H259.151Z" fill="#4B5563"/>
<path d="M280.01 72.5358C279.628 71.9158 279.139 71.3685 278.566 70.919C280.564 70.0868 282.321 68.7689 283.68 67.085C285.039 65.4011 285.955 63.4045 286.347 61.2765H278.985V59.27H286.708C286.837 58.0864 286.924 56.383 286.953 54.2755V53.5538H289.046V53.6259C289.052 55.5111 288.956 57.3953 288.757 59.27H297.115V61.2765H289.551C290.195 63.3726 291.223 65.3306 292.583 67.0505C293.878 68.6898 295.566 69.9758 297.491 70.7891C296.902 71.2961 296.412 71.9079 296.047 72.5935C292.438 70.919 289.768 67.7289 288.036 63.0231C287.492 65.107 286.489 67.0429 285.101 68.6889C283.712 70.3349 281.972 71.6493 280.01 72.5358Z" fill="#4B5563"/>
<path d="M311.695 72.5791C311.577 72.0007 311.368 71.4451 311.074 70.9335C312.387 70.9335 313.268 70.9335 313.73 70.9335C313.851 70.9335 313.97 70.9037 314.076 70.8469C314.108 70.815 314.132 70.7764 314.147 70.7339C314.162 70.6915 314.168 70.6462 314.163 70.6015V68.6383H306.151V67.0793H314.163V66.0256H315.245C315.898 65.7004 316.53 65.3339 317.136 64.9285H309.76V63.485H318.984L319.388 63.384L320.5 64.3511C319.128 65.4204 317.636 66.3262 316.054 67.0505H324.094V68.6095H316.039V70.6448C316.062 71.0154 315.998 71.3861 315.852 71.7274C315.68 71.9985 315.412 72.1945 315.101 72.2759C313.985 72.5308 312.839 72.6328 311.695 72.5791ZM306.296 64.8564V60.9012H307.913L307.508 54.4199L308.721 54.6941C309.37 54.492 310.323 54.16 311.608 53.6693L312.561 54.7374C311.552 55.1767 310.503 55.5152 309.428 55.7479V56.4696H312.315V57.7255H309.428V58.6782H312.315V59.9052C312.941 59.6124 313.54 59.2646 314.105 58.8658C313.715 58.606 313.311 58.3606 312.907 58.1297L313.831 57.3646C314.271 57.5795 314.696 57.8256 315.101 58.1008C315.445 57.7992 315.759 57.4657 316.039 57.1048L317.339 57.4945C316.991 57.9591 316.604 58.3937 316.184 58.7937C316.6 59.0882 316.996 59.4114 317.367 59.7608L316.386 60.6269C316.024 60.2577 315.628 59.9242 315.202 59.6309C314.62 60.0801 314.002 60.4808 313.355 60.829C313.043 60.4925 312.694 60.1923 312.315 59.934H309.659V60.9012H320.543L320.644 59.934H317.873V58.6782H320.76V57.7255H317.873V56.4696H320.76V55.5169H317.671V54.2611H322.651C322.521 56.8161 322.376 59.0246 322.218 60.9012H323.762V64.8564H321.857V62.3302H307.898V64.8564H306.296ZM313.398 57.2058C313.077 56.9036 312.74 56.6193 312.387 56.3542C313.001 56.0927 313.587 55.7686 314.134 55.387C313.747 55.1234 313.342 54.8871 312.921 54.6797L313.845 53.9146C314.29 54.1281 314.724 54.3641 315.144 54.622C315.454 54.349 315.739 54.0496 315.996 53.727L317.281 54.1167C316.974 54.5534 316.616 54.9509 316.213 55.3004C316.589 55.563 316.946 55.8524 317.281 56.1665L316.328 57.047C315.988 56.7054 315.621 56.3916 315.231 56.1088C314.652 56.5261 314.039 56.8931 313.398 57.2058Z" fill="#4B5563"/>
<path d="M332.885 67.8444V66.0689H334.675L334.357 54.5209L335.729 54.8096C336.462 54.4302 337.17 54.0059 337.851 53.5393L338.674 54.4487H345.891V65.9967H348.244C348.244 65.376 348.33 64.5532 348.359 63.6727H346.439V62.0848H348.431C348.431 61.5941 348.431 60.8579 348.504 59.8907H346.454V58.3895H348.547C348.547 58.1152 348.547 57.7399 348.547 57.2203V56.1232H346.324V54.5498H350.25C350.193 58.8514 350.067 62.7007 349.875 66.0978H351.593V67.8733L332.885 67.8444ZM334.502 72.5791C334.059 72.0925 333.576 71.6435 333.058 71.2366C334.145 70.7924 335.201 70.2765 336.22 69.6921C337.141 69.2049 338.008 68.6193 338.803 67.9454L340.593 69.158C339.672 69.8404 338.708 70.4624 337.706 71.0201C336.667 71.5967 335.597 72.1172 334.502 72.5791ZM336.335 66.0689H338.63V55.387C337.836 55.7768 336.97 56.1376 336.061 56.4841V58.4617H338.024V60.0351H336.104V62.2292H337.937V63.817H336.147L336.335 66.0689ZM340.016 66.0689H344.462V55.9644H339.973L340.016 66.0689ZM340.579 58.4617V57.2058H343.899V58.4617H340.579ZM340.709 64.3367V59.7175H343.755V64.3367H340.709ZM341.604 63.153H342.86V60.829H341.633L341.604 63.153ZM349.759 72.5935C347.898 71.3157 345.933 70.1955 343.884 69.2446L345.328 67.9454C347.458 68.9252 349.526 70.0339 351.521 71.2655L349.759 72.5935Z" fill="#4B5563"/>
<path d="M361.178 72.6224C360.766 72.1095 360.279 71.6618 359.734 71.2944C360.826 70.5418 361.726 69.543 362.361 68.3785C361.497 67.1513 360.838 65.7909 360.413 64.3512L361.856 63.8171C362.133 64.7964 362.551 65.7301 363.097 66.5886C363.567 65.2156 363.896 63.7986 364.079 62.3591H362.087L361.726 63.0809L359.994 62.6045C360.831 60.9878 361.794 58.9621 362.881 56.5274H359.893V54.7663H363.862H364.151L365.479 55.1128C364.931 56.4408 364.108 58.3029 362.982 60.6847H364.671L364.974 60.6125L366.114 60.8868C365.954 63.362 365.409 65.7971 364.498 68.1042C365.504 68.9631 366.71 69.554 368.005 69.822C369.468 70.1227 370.958 70.2631 372.451 70.2406C376.017 70.2406 378.225 70.2406 379.048 70.2406C378.689 70.8171 378.435 71.4524 378.297 72.1172H372.408C370.765 72.1482 369.123 71.9932 367.515 71.6552C366.111 71.3526 364.799 70.7192 363.689 69.8076C363.052 70.9069 362.198 71.8647 361.178 72.6224ZM371.022 69.5333V67.5846H365.826V66.0256H371.022V64.6976H366.692V63.2541H371.022V62.0127H366.865V60.5692H371.022V59.3278H365.566V57.7255H371.022V56.5418H366.995V55.0983H371.022V53.7703H372.913V55.0983H377.33V57.7977H378.947V59.3134H377.388V62.0704H372.971V63.3118H377.504V64.7553H372.899V66.0834H378.413V67.6423H372.899V69.5333H371.022ZM372.913 57.7255H375.439V56.5418H372.913V57.7255ZM372.913 60.4826H375.439V59.2412H372.913V60.4826Z" fill="#4B5563"/>
<path d="M388.229 70.9335C387.772 70.6578 387.289 70.4305 386.785 70.2551C387.433 68.7123 387.823 67.0739 387.94 65.4049L389.542 65.6647C389.378 67.4781 388.935 69.2553 388.229 70.9335ZM390.178 72.5646V64.048H388.734L387.088 64.1635L386.915 62.6045L388.359 62.5179C388.806 61.9261 389.182 61.4208 389.47 61.0744C388.752 60.0273 387.925 59.0595 387.002 58.1874L387.983 56.9027L388.546 57.4368C389.219 56.2299 389.779 54.9639 390.221 53.6548L391.924 54.2755C391.212 55.7222 390.421 57.1292 389.557 58.4905C389.884 58.8457 390.188 59.2218 390.466 59.6165C391.217 58.4652 391.906 57.2751 392.53 56.051L394.118 56.7728C392.886 58.7653 391.552 60.6925 390.12 62.5468L392.574 62.388C392.386 61.9694 392.126 61.4497 391.78 60.8434L393.223 60.2516C393.664 60.9771 394.059 61.7292 394.407 62.5035C394.718 63.1613 394.965 63.8478 395.143 64.5532L393.7 65.2317C393.602 64.8068 393.482 64.3875 393.339 63.9758L391.895 64.0769V72.7379L390.178 72.5646ZM393.382 69.4611C393.242 68.1841 392.916 66.9343 392.415 65.7513L393.858 65.3327C394.366 66.5118 394.729 67.7476 394.941 69.0136L393.382 69.4611ZM394.162 72.0161V70.2695H399.344V66.935H395.417V65.1739H405.406V66.935H401.278V70.3272H406.258V72.0738L394.162 72.0161ZM396.919 64.6687C396.29 63.2292 395.495 61.868 394.551 60.6125C395.327 59.3991 396.021 58.1356 396.63 56.8305L398.261 57.2347C397.684 58.3221 397.02 59.4336 396.269 60.5692C397.106 61.6479 397.831 62.8086 398.434 64.0336L396.919 64.6687ZM394.797 56.3253V54.622H405.94V56.3253H394.797ZM400.571 64.6687C399.89 63.2097 399.021 61.846 397.987 60.6125C398.806 59.4046 399.539 58.1409 400.181 56.8305L401.812 57.2347C401.235 58.2596 400.542 59.3566 399.748 60.5547C400.623 61.6427 401.392 62.8125 402.043 64.048L400.571 64.6687ZM404.237 64.6687C403.481 63.2096 402.55 61.8476 401.466 60.6125C402.295 59.3975 403.051 58.1346 403.732 56.8305L405.363 57.2491C404.711 58.3885 403.998 59.492 403.227 60.5547C404.174 61.589 405.002 62.727 405.695 63.947L404.237 64.6687Z" fill="#4B5563"/>
<path d="M415.179 64.048V60.165H415.323C415.111 59.6999 414.806 59.2826 414.428 58.938C415.781 58.7645 417.023 58.1022 417.921 57.0759C418.527 55.9922 418.831 54.766 418.802 53.5249H420.476C420.451 54.6602 420.271 55.7868 419.942 56.8738C421.014 57.4354 422.042 58.0772 423.017 58.7937L421.833 60.0062C420.968 59.3762 420.067 58.7978 419.134 58.274C418.252 59.2494 417.094 59.934 415.814 60.2372H424.172C423.952 59.6983 423.628 59.2078 423.219 58.7937C424.52 58.6031 425.711 57.9589 426.582 56.9749C427.176 55.9234 427.475 54.7318 427.449 53.5249H429.21C429.171 54.6329 428.982 55.7305 428.647 56.7872C430.068 57.4636 431.443 58.2353 432.761 59.0968L431.822 60.165H432.515V64.048H430.581V61.6662H416.983V64.048H415.179ZM415.958 57.509L414.76 56.7872C415.593 56.2176 416.2 55.3752 416.478 54.4054L417.734 54.8529C417.443 55.8943 416.82 56.812 415.958 57.4657V57.509ZM416.868 72.6224V67.7001H422.454C422.572 67.3405 422.669 66.9741 422.743 66.603H418.268V62.7489H429.469V66.603H424.894C424.842 66.7679 424.774 66.9275 424.692 67.0793C424.576 67.368 424.504 67.5846 424.446 67.7001H431.288V72.5646H429.325V72.0594H418.701V72.5791L416.868 72.6224ZM418.701 70.6737H429.325V69.1002H418.701V70.6737ZM420.072 65.376H427.492V64.048H420.072V65.376ZM421.848 57.1192L420.707 56.6429C421.271 55.99 421.756 55.2729 422.151 54.5065L423.71 55.0694C423.131 55.7756 422.509 56.4457 421.848 57.0759V57.1192ZM424.634 57.509L423.407 56.7728C424.209 56.21 424.803 55.3981 425.096 54.4632L426.352 54.9395C426.055 55.9395 425.455 56.8224 424.634 57.4657V57.509ZM424.258 60.2083H431.274C430.48 59.6742 429.354 58.9958 427.896 58.2018C426.927 59.2315 425.651 59.9201 424.258 60.165V60.2083ZM430.913 57.1625L429.729 56.6429C430.317 55.9586 430.83 55.2133 431.259 54.4199L432.905 55.0261C431.967 56.0222 431.303 56.7295 430.913 57.1625Z" fill="#4B5563"/>
<path d="M445.348 75.0763L443.905 74.4123C445.617 71.3694 446.516 67.9366 446.516 64.445C446.516 60.9533 445.617 57.5205 443.905 54.4776L445.348 53.8425C447.373 57.0056 448.449 60.6822 448.452 64.4377C448.446 68.2063 447.369 71.8957 445.348 75.0763Z" fill="#4B5563"/>
</g>
<defs>
<clipPath id="clip0_18_244">
<rect width="449" height="79.9698" fill="white"/>
</clipPath>
</defs>
</svg>
